<svg viewBox="0 0 66.924 57.693" xmlns="http://www.w3.org/2000/svg"><path d="m179.847 72h-41.539a2.315 2.315 0 0 0 -2.308 2.308v11.538h25.385a2.315 2.315 0 0 1 2.308 2.308v16.154h4.615l9.231 9.231v-9.231h2.308a2.315 2.315 0 0 0 2.307-2.308v-27.692a2.315 2.315 0 0 0 -2.307-2.308z" fill="#e7475e" transform="translate(-116.384 -66.231)"/><g fill="#322153"><path d="m3.462 80.462h1.153v8.077a1.009 1.009 0 0 0 .692 1.038.694.694 0 0 0 .462.115 1.047 1.047 0 0 0 .808-.346l8.885-8.885h29.538a3.4 3.4 0 0 0 3.462-3.461v-10.384h3l8.885 8.884a1.048 1.048 0 0 0 .808.346.694.694 0 0 0 .462-.115 1.109 1.109 0 0 0 .692-1.038v-8.077h1.154a3.4 3.4 0 0 0 3.462-3.462v-27.692a3.4 3.4 0 0 0 -3.463-3.462h-41.539a3.4 3.4 0 0 0 -3.462 3.462v10.384h-15a3.4 3.4 0 0 0 -3.461 3.462v27.692a3.4 3.4 0 0 0 3.462 3.462zm17.308-45a1.09 1.09 0 0 1 1.154-1.154h41.538a1.09 1.09 0 0 1 1.154 1.154v27.692a1.09 1.09 0 0 1 -1.154 1.154h-2.307a1.09 1.09 0 0 0 -1.155 1.154v6.462l-7.269-7.269a1.047 1.047 0 0 0 -.808-.346h-3.461v-15a3.4 3.4 0 0 0 -3.462-3.463h-24.231zm-18.462 13.846a1.09 1.09 0 0 1 1.154-1.154h41.538a1.09 1.09 0 0 1 1.154 1.154v27.692a1.09 1.09 0 0 1 -1.154 1.154h-30a1.048 1.048 0 0 0 -.808.346l-7.269 7.27v-6.462a1.09 1.09 0 0 0 -1.154-1.154h-2.307a1.09 1.09 0 0 1 -1.154-1.154z" transform="translate(0 -32)"/><path d="m65.154 194.308h18.462a1.154 1.154 0 1 0 0-2.308h-18.462a1.154 1.154 0 1 0 0 2.308z" transform="translate(-54.769 -168.923)"/><path d="m225.154 194.308h4.615a1.154 1.154 0 1 0 0-2.308h-4.615a1.154 1.154 0 1 0 0 2.308z" transform="translate(-191.692 -168.923)"/><path d="m65.154 226.308h9.231a1.154 1.154 0 1 0 0-2.308h-9.231a1.154 1.154 0 1 0 0 2.308z" transform="translate(-54.769 -196.307)"/><path d="m175 224h-13.846a1.154 1.154 0 1 0 0 2.308h13.846a1.154 1.154 0 1 0 0-2.308z" transform="translate(-136.923 -196.307)"/><path d="m65.154 258.308h27.692a1.154 1.154 0 0 0 0-2.308h-27.692a1.154 1.154 0 0 0 0 2.308z" transform="translate(-54.769 -223.692)"/><path d="m65.154 290.308h4.615a1.154 1.154 0 1 0 0-2.308h-4.615a1.154 1.154 0 1 0 0 2.308z" transform="translate(-54.769 -251.077)"/><path d="m147.616 288h-18.462a1.154 1.154 0 1 0 0 2.308h18.462a1.154 1.154 0 1 0 0-2.308z" transform="translate(-109.538 -251.077)"/><path d="m212.769 97.154a1.09 1.09 0 0 0 -1.153-1.154h-18.462a1.154 1.154 0 1 0 0 2.308h18.462a1.09 1.09 0 0 0 1.153-1.154z" transform="translate(-164.307 -86.769)"/><path d="m353.154 98.308h4.615a1.154 1.154 0 0 0 0-2.308h-4.615a1.154 1.154 0 1 0 0 2.308z" transform="translate(-301.23 -86.769)"/><path d="m353.154 130.308h4.615a1.154 1.154 0 0 0 0-2.308h-4.615a1.154 1.154 0 1 0 0 2.308z" transform="translate(-301.23 -114.154)"/><path d="m353.154 162.308h4.615a1.154 1.154 0 0 0 0-2.308h-4.615a1.154 1.154 0 1 0 0 2.308z" transform="translate(-301.23 -141.538)"/><path d="m353.154 194.308h4.615a1.154 1.154 0 0 0 0-2.308h-4.615a1.154 1.154 0 1 0 0 2.308z" transform="translate(-301.23 -168.923)"/></g></svg>