<svg viewBox="0 0 125.2 125" xmlns="http://www.w3.org/2000/svg"><g fill="#e7475e" transform="translate(-37.3 -337.399)"><circle cx="100" cy="387.4" r="6.3"/><path d="m160.8 443.7-49.5-99a12.551 12.551 0 0 0 -22.8 0l-49.5 99a12.026 12.026 0 0 0 -1.7 6.2 12.5 12.5 0 0 0 12.5 12.5h12.5a12.5 12.5 0 0 1 12.5-12.5h3.1a12.5 12.5 0 0 1 12.5-12.5v-15.6h18.8v15.6a12.5 12.5 0 0 1 12.5 12.5h3.1a12.5 12.5 0 0 1 12.5 12.5h12.7a12.5 12.5 0 0 0 12.5-12.5 12.026 12.026 0 0 0 -1.7-6.2zm-95.2-17.5h-1.9v1.9a1.3 1.3 0 0 1 -2.6 0v-1.9h-1.9a1.3 1.3 0 0 1 0-2.6h1.9v-1.9a1.3 1.3 0 0 1 2.6 0v1.9h1.9a1.3 1.3 0 1 1 0 2.6zm12.5 12.5h-1.9v1.9a1.3 1.3 0 0 1 -2.6 0v-1.9h-1.9a1.3 1.3 0 0 1 0-2.6h1.9v-1.9a1.3 1.3 0 0 1 2.6 0v1.9h1.9a1.3 1.3 0 1 1 0 2.6zm37.5-26.3-6.3 6.3h-18.7l-6.3-6.3h-9.3v-6.3c0-12.5 9.4-12.5 9.4-12.5v-6.3c0-25 15.6-31.3 15.6-31.3s15.6 6.3 15.6 31.3v6.3s9.4 0 9.4 12.5v6.3zm12.5 26.3h-1.9v1.9a1.3 1.3 0 0 1 -2.6 0v-1.9h-1.9a1.3 1.3 0 0 1 0-2.6h1.9v-1.9a1.3 1.3 0 0 1 2.6 0v1.9h1.9a1.3 1.3 0 1 1 0 2.6zm12.5-12.5h-1.9v1.9a1.3 1.3 0 1 1 -2.6 0v-1.9h-1.9a1.3 1.3 0 0 1 0-2.6h1.9v-1.9a1.3 1.3 0 1 1 2.6 0v1.9h1.9a1.3 1.3 0 1 1 0 2.6z"/></g></svg>