<svg viewBox="0 0 64.953 69.764" xmlns="http://www.w3.org/2000/svg"><path d="m353.623 200h-9.623v4.811h7.217a2.413 2.413 0 0 1 2.406 2.406v9.623a2.413 2.413 0 0 1 -2.406 2.406h-7.217v4.811h9.623a4.825 4.825 0 0 0 4.811-4.811v-14.435a4.825 4.825 0 0 0 -4.811-4.811z" fill="#e7475e" transform="translate(-294.684 -169.929)"/><g fill="#322153"><path d="m74.939 132.811h-8.42v-1.2a3.544 3.544 0 0 0 -3.609-3.611h-43.3a3.544 3.544 0 0 0 -3.61 3.608v21.05c0 13.833 10.946 25.38 24.3 25.861h.962a25.258 25.258 0 0 0 17.561-7.1 24.865 24.865 0 0 0 6.977-12.145h9.142a5.956 5.956 0 0 0 6.014-6.014v-14.435a5.956 5.956 0 0 0 -6.017-6.014zm-8.42 7.217h6.014a1.136 1.136 0 0 1 1.2 1.2v9.623a1.136 1.136 0 0 1 -1.2 1.2h-6.014zm-9.382 29.71a22.642 22.642 0 0 1 -16.719 6.375c-12.149-.481-22.012-10.946-22.012-23.455v-21.05a1.136 1.136 0 0 1 1.2-1.2h43.3a1.136 1.136 0 0 1 1.2 1.2v21.651a22.924 22.924 0 0 1 -6.969 16.479zm21.41-16.479a3.544 3.544 0 0 1 -3.608 3.608h-8.42v-2.406h6.014a3.544 3.544 0 0 0 3.608-3.608v-9.623a3.544 3.544 0 0 0 -3.608-3.608h-6.014v-2.406h8.42a3.544 3.544 0 0 1 3.608 3.608z" transform="translate(-16 -108.755)"/><path d="m68.448 307.245a18.018 18.018 0 0 1 -18.042-18.045 1.2 1.2 0 0 0 -2.406 0 20.431 20.431 0 0 0 20.448 20.448 1.2 1.2 0 0 0 0-2.406z" transform="translate(-43.189 -244.698)"/><path d="m153.983 224.361-9.623 9.623a1.163 1.163 0 0 0 0 1.684 1.163 1.163 0 0 0 1.684 0l9.623-9.623a1.191 1.191 0 0 0 -1.684-1.684z" transform="translate(-124.755 -190.321)"/><path d="m145.2 231.217a1.092 1.092 0 0 0 .842-.361l4.811-4.811a1.191 1.191 0 0 0 -1.684-1.684l-4.811 4.811a1.163 1.163 0 0 0 0 1.684 1.092 1.092 0 0 0 .842.361z" transform="translate(-124.755 -190.321)"/><path d="m181.172 256.361-4.811 4.811a1.163 1.163 0 0 0 0 1.684 1.163 1.163 0 0 0 1.684 0l4.811-4.811a1.191 1.191 0 0 0 -1.684-1.684z" transform="translate(-151.943 -217.509)"/><path d="m178.406 15.637v-14.437a1.2 1.2 0 0 0 -2.406 0v14.437a1.2 1.2 0 0 0 2.406 0z" transform="translate(-151.943)"/><path d="m114.406 38.014v-4.814a1.2 1.2 0 1 0 -2.406 0v4.811a1.2 1.2 0 0 0 2.406 0z" transform="translate(-97.566 -27.189)"/><path d="m242.406 38.014v-4.814a1.2 1.2 0 1 0 -2.406 0v4.811a1.2 1.2 0 1 0 2.406 0z" transform="translate(-206.321 -27.189)"/><path d="m146.406 42.825v-9.625a1.2 1.2 0 1 0 -2.406 0v9.623a1.2 1.2 0 1 0 2.406 0z" transform="translate(-124.755 -27.189)"/><path d="m210.406 10.825v-9.625a1.2 1.2 0 1 0 -2.406 0v9.623a1.2 1.2 0 1 0 2.406 0z" transform="translate(-179.132)"/></g></svg>