<svg viewBox="0 0 400 432" xmlns="http://www.w3.org/2000/svg"><g transform="translate(-16)"><path d="m344 71.984a31.988 31.988 0 0 0 -32-31.984h-192a31.988 31.988 0 0 0 -32 31.984v202.664l128 85.336 128-85.336z" fill="#e7475e"/><g fill="#322153"><path d="m312 0h-192a40.045 40.045 0 0 0 -40 40v113.056l-60.44 40.288a8.129 8.129 0 0 0 -.928.8c-.128.112-.264.208-.376.328a7.958 7.958 0 0 0 -1.48 2.192c-.088.184-.144.368-.216.56a7.988 7.988 0 0 0 -.56 2.776v224a8.028 8.028 0 0 0 8 8h384a8.028 8.028 0 0 0 8-8v-224a7.988 7.988 0 0 0 -.56-2.776c-.072-.192-.136-.376-.216-.568a7.931 7.931 0 0 0 -1.472-2.192c-.12-.12-.256-.216-.376-.328a8.022 8.022 0 0 0 -.928-.8l-60.448-40.28v-113.056a40.045 40.045 0 0 0 -40-40zm88 404.688-113.84-113.84 113.84-75.904zm-368-189.744 113.84 75.9-113.84 113.844zm125.656 86.712a7.737 7.737 0 0 0 1.352-2.04l52.552 35.04a8.006 8.006 0 0 0 8.88 0l52.552-35.04a7.869 7.869 0 0 0 1.352 2.04l114.344 114.344h-345.376zm-61.656-261.656a24.029 24.029 0 0 1 24-24h192a24.029 24.029 0 0 1 24 24v198.384l-120 80-120-80zm-16 132.28v55.432l-41.576-27.712zm313.576 27.72-41.576 27.72v-55.44z"/><path d="m184 80h64a8 8 0 0 0 0-16h-64a8 8 0 0 0 0 16z"/><path d="m120 144h192a8 8 0 0 0 0-16h-192a8 8 0 0 0 0 16z"/><path d="m120 176h192a8 8 0 0 0 0-16h-192a8 8 0 0 0 0 16z"/><path d="m320 200a7.993 7.993 0 0 0 -8-8h-192a8 8 0 0 0 0 16h192a7.993 7.993 0 0 0 8-8z"/></g></g></svg>