<svg viewBox="0 0 400 432" xmlns="http://www.w3.org/2000/svg"><path d="M328 71.984A31.988 31.988 0 0 0 296 40H104a31.988 31.988 0 0 0-32 31.984v202.664l128 85.336 128-85.336z" fill="#e7475e"/><g fill="#322153"><path d="M296 0H104a40.045 40.045 0 0 0-40 40v113.056L3.56 193.344a8.129 8.129 0 0 0-.928.8c-.128.112-.264.208-.376.328a7.958 7.958 0 0 0-1.48 2.192c-.088.184-.144.368-.216.56A7.988 7.988 0 0 0 0 200v224a8.028 8.028 0 0 0 8 8h384a8.028 8.028 0 0 0 8-8V200a7.988 7.988 0 0 0-.56-2.776c-.072-.192-.136-.376-.216-.568a7.931 7.931 0 0 0-1.472-2.192c-.12-.12-.256-.216-.376-.328a8.022 8.022 0 0 0-.928-.8L336 153.056V40a40.045 40.045 0 0 0-40-40zm88 404.688l-113.84-113.84L384 214.944zM16 214.944l113.84 75.9L16 404.688zm125.656 86.712a7.737 7.737 0 0 0 1.352-2.04l52.552 35.04a8.006 8.006 0 0 0 8.88 0l52.552-35.04a7.869 7.869 0 0 0 1.352 2.04L372.688 416H27.312zM80 40a24.029 24.029 0 0 1 24-24h192a24.029 24.029 0 0 1 24 24v198.384l-120 80-120-80zM64 172.28v55.432L22.424 200zM377.576 200L336 227.72v-55.44z"/><path d="M168 80h64a8 8 0 0 0 0-16h-64a8 8 0 0 0 0 16zm-64 64h192a8 8 0 0 0 0-16H104a8 8 0 0 0 0 16zm0 32h192a8 8 0 0 0 0-16H104a8 8 0 0 0 0 16zm200 24a7.993 7.993 0 0 0-8-8H104a8 8 0 0 0 0 16h192a7.993 7.993 0 0 0 8-8z"/></g></svg>