<svg viewBox="0 0 63.254 61.206" xmlns="http://www.w3.org/2000/svg"><path d="m189.7 48.969-22.5 22.5 13.11 13.11 23.16-23.16a4.353 4.353 0 0 0 0-6.227l-6.336-6.336a5.31 5.31 0 0 0 -7.434.113z" fill="#e7475e" transform="translate(-144.367 -41.95)"/><g fill="#322153"><path d="m59.867 15.721-6.336-6.336a6.265 6.265 0 0 0 -8.958 0l-22.5 22.5v.115l-.218.218v.109c0 .109-.109.218-.109.328v2.513a2.975 2.975 0 0 1 -.983 2.294l-16.175 16.277a.568.568 0 0 0 -.218.437l-4.37 13.109v.328a.4.4 0 0 0 .109.328v.109c0 .109.109.218.218.328s.218.218.328.218c0 .109.218.109.328.109h26.217a1.092 1.092 0 0 0 0-2.185h-19.444l6.773-2.294a.828.828 0 0 0 .437-.218l16.169-16.169a3.144 3.144 0 0 1 2.294-.983h2.513a.657.657 0 0 0 .437-.109c.109-.109.218-.109.328-.218l23.16-23.16a4.935 4.935 0 0 0 1.2-1.857v.218a4.221 4.221 0 0 1 -1.2 2.95l-15.95 15.95a1.056 1.056 0 0 0 0 1.529 1.056 1.056 0 0 0 1.529 0l15.954-15.951a6.33 6.33 0 0 0 0-8.958zm-54.077 40.858 6.227 6.227-9.4 3.168zm52.548-34.74-22.833 22.832h-2.076a5.124 5.124 0 0 0 -3.824 1.639l-15.513 15.4-7.209-7.21 15.4-15.4a6.1 6.1 0 0 0 1.639-3.824l6.883 6.883a1.081 1.081 0 0 0 1.529-1.529l-7.975-7.975 21.741-21.741a4.154 4.154 0 0 1 5.9 0l6.336 6.336a3.371 3.371 0 0 1 .002 4.589z" transform="translate(0 -7.5)"/><path d="m76.637 248.028-13.11 13.11a1.056 1.056 0 0 0 0 1.529 1.056 1.056 0 0 0 1.529 0l13.11-13.11a1.081 1.081 0 0 0 -1.529-1.529z" transform="translate(-54.57 -214.899)"/><path d="m296.267 56.028-8.74 8.74a1.056 1.056 0 0 0 0 1.529 1.056 1.056 0 0 0 1.529 0l8.74-8.74a1.081 1.081 0 0 0 -1.529-1.529z" transform="translate(-247.981 -49.118)"/><path d="m288.292 62.255a.992.992 0 0 0 .765-.328l4.37-4.37a1.081 1.081 0 0 0 -1.529-1.529l-4.37 4.37a1.056 1.056 0 0 0 0 1.529.992.992 0 0 0 .764.328z" transform="translate(-247.981 -49.118)"/><path d="m323.9 88.028-4.37 4.37a1.056 1.056 0 0 0 0 1.529 1.056 1.056 0 0 0 1.529 0l4.37-4.37a1.081 1.081 0 0 0 -1.529-1.529z" transform="translate(-275.611 -76.748)"/><path d="m224.292 441.885h17.479a1.092 1.092 0 1 0 0-2.185h-17.479a1.092 1.092 0 1 0 0 2.185z" transform="translate(-192.72 -380.68)"/><path d="m388.662 441.885a1.092 1.092 0 0 0 0-2.185h-4.37a1.092 1.092 0 1 0 0 2.185z" transform="translate(-330.871 -380.68)"/></g></svg>