<svg viewBox="0 0 63.254 61.206" xmlns="http://www.w3.org/2000/svg"><path d="M45.333 7.019l-22.5 22.5 13.11 13.11 23.16-23.16a4.353 4.353 0 0 0 0-6.227l-6.336-6.336a5.31 5.31 0 0 0-7.434.113z" fill="#e7475e"/><g fill="#322153"><path d="M59.867 8.221l-6.336-6.336a6.265 6.265 0 0 0-8.958 0l-22.5 22.5v.115l-.218.218v.109c0 .109-.109.218-.109.328v2.513a2.975 2.975 0 0 1-.983 2.294L4.588 46.239a.568.568 0 0 0-.218.437L0 59.785v.328a.4.4 0 0 0 .109.328v.109c0 .109.109.218.218.328s.218.218.328.218c0 .109.218.109.328.109H27.2a1.093 1.093 0 0 0 0-2.185H7.756l6.773-2.294a.828.828 0 0 0 .437-.218l16.169-16.169a3.144 3.144 0 0 1 2.294-.983h2.513a.657.657 0 0 0 .437-.109c.109-.109.218-.109.328-.218l23.16-23.16a4.935 4.935 0 0 0 1.2-1.857v.218a4.221 4.221 0 0 1-1.2 2.95l-15.95 15.95a1.056 1.056 0 0 0 0 1.529 1.056 1.056 0 0 0 1.529 0L61.4 18.708a6.33 6.33 0 0 0 0-8.958zM5.79 49.079l6.227 6.227-9.4 3.168zm52.548-34.74L35.505 37.171h-2.076a5.124 5.124 0 0 0-3.824 1.639l-15.513 15.4L6.883 47l15.4-15.4a6.1 6.1 0 0 0 1.639-3.824l6.883 6.883a1.081 1.081 0 0 0 1.529-1.529l-7.975-7.975L46.1 3.414a4.154 4.154 0 0 1 5.9 0l6.336 6.336a3.371 3.371 0 0 1 .002 4.589z"/><path d="M22.067 33.129l-13.11 13.11a1.056 1.056 0 0 0 0 1.529 1.056 1.056 0 0 0 1.529 0l13.11-13.11a1.081 1.081 0 0 0-1.529-1.529zM48.286 6.91l-8.74 8.74a1.056 1.056 0 0 0 0 1.529 1.056 1.056 0 0 0 1.529 0l8.74-8.74a1.081 1.081 0 0 0-1.529-1.529zm-7.975 6.227a.992.992 0 0 0 .765-.328l4.37-4.37a1.081 1.081 0 0 0-1.529-1.529l-4.37 4.37a1.056 1.056 0 0 0 0 1.529.992.992 0 0 0 .764.328zm7.978-1.857l-4.37 4.37a1.056 1.056 0 0 0 0 1.529 1.056 1.056 0 0 0 1.529 0l4.37-4.37a1.081 1.081 0 0 0-1.529-1.529zM31.572 61.205h17.479a1.093 1.093 0 1 0 0-2.185H31.572a1.093 1.093 0 1 0 0 2.185zm26.219 0a1.093 1.093 0 0 0 0-2.185h-4.37a1.093 1.093 0 1 0 0 2.185z"/></g></svg>