<svg viewBox="0 0 281.522 410.044" xmlns="http://www.w3.org/2000/svg"><path d="M140.761 410.044c53.857 0 134.642-167.992 134.642-242.355a134.642 134.642 0 1 0-269.283 0c-.001 74.363 80.784 242.355 134.641 242.355zm0-323.14a80.785 80.785 0 1 1-80.785 80.785 80.789 80.789 0 0 1 80.785-80.784z" fill="#e7475e"/><g fill="#322153"><path d="M140.761 227.666a86.9 86.9 0 1 0-86.9-86.9 87 87 0 0 0 86.9 86.9zm0-161.57a74.665 74.665 0 1 1-74.668 74.661 74.755 74.755 0 0 1 74.668-74.661z"/><path d="M140.761 389.235c58.966 0 140.761-172.509 140.761-248.474C281.522 63.147 218.375 0 140.761 0S0 63.147 0 140.761c0 75.965 81.795 248.474 140.761 248.474zm0-377a128.67 128.67 0 0 1 128.522 128.526c0 75.211-80.684 236.239-128.522 236.239S12.236 215.972 12.236 140.761A128.675 128.675 0 0 1 140.761 12.239z"/><path d="M140.761 350.068c-18.2 0-54.961-60.925-75.244-104.192a6.121 6.121 0 0 0-11.088 5.19C63.14 269.647 108.218 362.3 140.754 362.3a6.116 6.116 0 0 0 .007-12.232zm0-310.901a101.711 101.711 0 0 1 101.594 101.594 6.12 6.12 0 0 0 12.239 0A113.967 113.967 0 0 0 140.761 26.928a6.12 6.12 0 1 0 0 12.239z"/></g></svg>